:FULLY-SPECIFIED
:FORCE-ALL-JOINTS-BE-3DOF
:DEGREES
2650
root -1.68289 15.3029 -28.6304 169.392 -67.9088 -173.732
lfemur -33.6576 26.7635 -1.486
ltibia 61.6148 -0 0
lfoot 13.1691 10.9768 0.568692
ltoes -0.0845184 0 0
rfemur -32.9237 -22.7865 20.7947
rtibia 66.9607 -0 0
rfoot -23.333 -11.4609 0.0329819
rtoes -7.84345 0 0
lowerback 16.1271 3.72964 1.00898
upperback -0.887916 5.27711 1.54969
thorax -9.79535 2.49704 -0.0973882
lowerneck -3.65082 9.75635 1.87237
upperneck 6.24837 12.879 0.422211
head 2.3499 6.48043 0.270399
lclavicle -2.16427e-14 -8.39865e-15 0
lhumerus 25.9903 -26.1401 70.9617
lradius 118.815 -0 0
lwrist -0.087135 0 0
lhand -39.0785 33.2516 0.188007
lfingers 7.12502 -0 0
lthumb -12.0785 63.14 0.272001
rclavicle -2.16427e-14 -8.39865e-15 0
rhumerus -33.0005 46.9175 -88.8517
rradius 103.554 -0 0
rwrist -46.9435 0 0
rhand -10.1343 -23.5944 0.23326
rfingers 7.12502 -0 0
rthumb 15.8306 -52.5679 0.306727
2651
root -1.7816 15.2983 -28.6 169.833 -66.6861 -174.34
lfemur -33.8102 27.07 -1.35859
ltibia 60.0903 -0 0
lfoot 14.0007 10.9263 0.571937
ltoes 0.842004 -0 0
rfemur -32.5223 -22.4567 20.5862
rtibia 67.1265 -0 0
rfoot -23.6426 -11.3942 0.0359553
rtoes -7.86733 0 0
lowerback 16.0982 3.90075 1.18362
upperback -0.891238 5.52956 1.46579
thorax -9.76845 2.60644 -0.348266
lowerneck -3.58635 9.9419 2.02895
upperneck 6.39403 13.125 0.322118
head 2.40728 6.60133 0.222308
lclavicle -2.16427e-14 -8.39865e-15 0
lhumerus 24.1645 -24.3581 71.8168
lradius 118.371 -0 0
lwrist -1.92606 0 0
lhand -39.4627 32.7359 0.160477
lfingers 7.12502 -0 0
lthumb -12.4497 62.6037 0.243251
rclavicle -2.16427e-14 -8.39865e-15 0
rhumerus -34.1209 47.6567 -89.755
rradius 104.547 -0 0
rwrist -50.014 0 0
rhand -9.39838 -23.4458 0.219819
rfingers 7.12502 -0 0
rthumb 16.5397 -52.3721 0.290985
2652
root -1.88171 15.2927 -28.5696 170.193 -65.5311 -174.864
lfemur -33.9693 27.3718 -1.24519
ltibia 58.5844 -0 0
lfoot 14.8045 10.886 0.571283
ltoes 1.74598 -0 0
rfemur -32.1398 -22.1246 20.384
rtibia 67.3086 -0 0
rfoot -23.9448 -11.3338 0.0386337
rtoes -7.88186 0 0
lowerback 16.0715 4.0699 1.35332
upperback -0.894726 5.77846 1.38249
thorax -9.74308 2.71453 -0.594812
lowerneck -3.51904 10.1125 2.17651
upperneck 6.53849 13.3514 0.232682
head 2.46528 6.71244 0.178528
lclavicle -2.16427e-14 -8.39865e-15 0
lhumerus 22.3883 -22.5872 72.6002
lradius 117.917 -0 0
lwrist -3.71812 0 0
lhand -39.8225 32.2296 0.132276
lfingers 7.12502 -0 0
lthumb -12.7972 62.0758 0.213315
rclavicle -2.16427e-14 -8.39865e-15 0
rhumerus -35.2146 48.3953 -90.6512
rradius 105.53 -0 0
rwrist -53.0394 0 0
rhand -8.67146 -23.3037 0.205021
rfingers 7.12502 -0 0
rthumb 17.2401 -52.1835 0.273378
2653
root -1.98349 15.286 -28.5392 170.484 -64.4484 -175.317
lfemur -34.135 27.6679 -1.14642
ltibia 57.1016 -0 0
lfoot 15.5779 10.8563 0.566408
ltoes 2.62457 -0 0
rfemur -31.7772 -21.7911 20.1885
rtibia 67.5067 -0 0
rfoot -24.2386 -11.2801 0.0409356
rtoes -7.88682 0 0
lowerback 16.047 4.23655 1.51757
upperback -0.898353 6.02304 1.3
thorax -9.71932 2.82096 -0.836283
lowerneck -3.44916 10.2675 2.31444
upperneck 6.68142 13.557 0.15425
head 2.52376 6.81327 0.139236
lclavicle -2.16427e-14 -8.39865e-15 0
lhumerus 20.6602 -20.8353 73.3155
lradius 117.452 -0 0
lwrist -5.45765 0 0
lhand -40.1564 31.7342 0.103953
lfingers 7.12502 -0 0
lthumb -13.1197 61.558 0.182731
rclavicle -2.16427e-14 -8.39865e-15 0
rhumerus -36.2768 49.1327 -91.5364
rradius 106.5 -0 0
rwrist -56.0107 0 0
rhand -7.95567 -23.1688 0.189082
rfingers 7.12502 -0 0
rthumb 17.9297 -52.003 0.254149
2654
root -2.08717 15.2783 -28.5089 170.718 -63.4429 -175.71
lfemur -34.307 27.9574 -1.06289
ltibia 55.6463 -0 0
lfoot 16.3182 10.8372 0.556998
ltoes 3.47492 -0 0
rfemur -31.4358 -21.4573 20.0001
rtibia 67.7206 -0 0
rfoot -24.5231 -11.2332 0.0427777
rtoes -7.88205 0 0
lowerback 16.025 4.40022 1.67581
upperback -0.90209 6.26259 1.21858
thorax -9.69722 2.9254 -1.07194
lowerneck -3.37694 10.4061 2.44217
upperneck 6.8225 13.7411 0.0871661
head 2.5826 6.90337 0.104609
lclavicle -2.16427e-14 -8.39865e-15 0
lhumerus 18.979 -19.1101 73.9663
lradius 116.979 -0 0
lwrist -7.13897 0 0
lhand -40.4631 31.2512 0.0760838
lfingers 7.12502 -0 0
lthumb -13.4159 61.0518 0.152065
rclavicle -2.16427e-14 -8.39865e-15 0
rhumerus -37.3027 49.8682 -92.4063
rradius 107.456 -0 0
rwrist -58.919 0 0
rhand -7.25315 -23.0414 0.172237
rfingers 7.12502 -0 0
rthumb 18.6066 -51.831 0.233566
2655
root -2.19303 15.2695 -28.4785 170.902 -62.519 -176.049
lfemur -34.4851 28.2393 -0.995239
ltibia 54.2229 -0 0
lfoot 17.0227 10.829 0.542749
ltoes 4.29419 -0 0
rfemur -31.1168 -21.1242 19.8192
rtibia 67.9501 -0 0
rfoot -24.7974 -11.1934 0.0440758
rtoes -7.86733 0 0
lowerback 16.0055 4.56037 1.82752
upperback -0.905903 6.49635 1.13845
thorax -9.67684 3.02753 -1.30104
lowerneck -3.30265 10.5277 2.55908
upperneck 6.9614 13.9025 0.0317663
head 2.64168 6.98225 0.0748206
lclavicle -2.16427e-14 -8.39865e-15 0
lhumerus 17.3433 -17.4191 74.5563
lradius 116.497 -0 0
lwrist -8.7564 0 0
lhand -40.7412 30.7821 0.0492672
lfingers 7.12502 -0 0
lthumb -13.6845 60.5588 0.121907
rclavicle -2.16427e-14 -8.39865e-15 0
rhumerus -38.2868 50.6017 -93.2561
rradius 108.393 -0 0
rwrist -61.755 0 0
rhand -6.56603 -22.9221 0.154735
rfingers 7.12502 -0 0
rthumb 19.2685 -51.6683 0.211919
2656
root -2.30131 15.2596 -28.4483 171.043 -61.6815 -176.34
lfemur -34.6692 28.5127 -0.944055
ltibia 52.8358 -0 0
lfoot 17.6888 10.8319 0.52337
ltoes 5.07953 -0 0
rfemur -30.8212 -20.7929 19.6461
rtibia 68.1949 -0 0
rfoot -25.0605 -11.1611 0.0447455
rtoes -7.84248 0 0
lowerback 15.9884 4.71651 1.97216
upperback -0.909754 6.72359 1.05987
thorax -9.65823 3.127 -1.52285
lowerneck -3.22652 10.6316 2.66458
upperneck 7.09776 14.0403 -0.01162
head 2.70085 7.04944 0.0500439
lclavicle -2.16427e-14 -8.39865e-15 0
lhumerus 15.7523 -15.7699 75.0894
lradius 116.009 -0 0
lwrist -10.3043 0 0
lhand -40.9894 30.3285 0.0241196
lfingers 7.12502 -0 0
lthumb -13.9241 60.0805 0.0928688
rclavicle -2.16427e-14 -8.39865e-15 0
rhumerus -39.2231 51.3327 -94.0806
rradius 109.309 -0 0
rwrist -64.5099 0 0
rhand -5.89644 -22.8114 0.136843
rfingers 7.12502 -0 0
rthumb 19.9136 -51.5155 0.189518
2657
root -2.41227 15.2487 -28.4181 171.144 -60.9347 -176.588
lfemur -34.8592 28.7766 -0.909937
ltibia 51.4895 -0 0
lfoot 18.3139 10.8461 0.498588
ltoes 5.8281 -0 0
rfemur -30.5501 -20.4645 19.4811
rtibia 68.4548 -0 0
rfoot -25.3114 -11.1364 0.044703
rtoes -7.8073 0 0
lowerback 15.9739 4.86813 2.1092
upperback -0.913601 6.94357 0.983078
thorax -9.64144 3.22349 -1.73661
lowerneck -3.1488 10.7171 2.75805
upperneck 7.23124 14.1534 -0.0426693
head 2.76 7.10447 0.03045
lclavicle -2.16427e-14 -8.39865e-15 0
lhumerus 14.2052 -14.17 75.5693
lradius 115.515 -0 0
lwrist -11.7769 0 0
lhand -41.2064 29.8917 0.00126862
lfingers 7.12502 -0 0
lthumb -14.1335 59.6185 0.065573
rclavicle -2.16427e-14 -8.39865e-15 0
rhumerus -40.1054 52.0611 -94.8741
rradius 110.201 -0 0
rwrist -67.1746 0 0
rhand -5.24653 -22.7097 0.118838
rfingers 7.12502 -0 0
rthumb 20.5397 -51.3732 0.166688
2658
root -2.52616 15.2367 -28.3882 171.211 -60.2832 -176.796
lfemur -35.0547 29.0299 -0.893466
ltibia 50.1884 -0 0
lfoot 18.8952 10.8718 0.468149
ltoes 6.53705 -0 0
rfemur -30.3048 -20.14 19.3245
rtibia 68.7296 -0 0
rfoot -25.5493 -11.1196 0.043866
rtoes -7.76159 0 0
lowerback 15.9619 5.01471 2.23809
upperback -0.9174 7.15555 0.90831
thorax -9.62649 3.31665 -1.9416
lowerneck -3.06973 10.7835 2.83889
upperneck 7.36145 14.241 -0.0610639
head 2.81898 7.14686 0.0162085
lclavicle -2.16427e-14 -8.39865e-15 0
lhumerus 12.7016 -12.6268 76.0002
lradius 115.016 -0 0
lwrist -13.1686 0 0
lhand -41.3909 29.4733 -0.0186523
lfingers 7.12502 -0 0
lthumb -14.3114 59.1743 0.0406521
rclavicle -2.16427e-14 -8.39865e-15 0
rhumerus -40.9267 52.787 -95.6304
rradius 111.067 -0 0
rwrist -69.7401 0 0
rhand -4.61842 -22.6175 0.101006
rfingers 7.12502 -0 0
rthumb 21.1448 -51.242 0.143769
2659
root -2.64324 15.2236 -28.3584 171.247 -59.7314 -176.965
lfemur -35.2558 29.2718 -0.89521
ltibia 48.937 -0 0
lfoot 19.4301 10.9092 0.431822
ltoes 7.20353 -0 0
rfemur -30.0862 -19.8205 19.1766
rtibia 69.019 -0 0
rfoot -25.7731 -11.1111 0.042155
rtoes -7.70518 0 0
lowerback 15.9526 5.15574 2.35831
upperback -0.921104 7.35879 0.835813
thorax -9.61345 3.40616 -2.13707
lowerneck -2.98953 10.8301 2.90648
upperneck 7.488 14.3019 -0.0664915
head 2.87766 7.17614 0.00748742
lclavicle -2.16427e-14 -8.39865e-15 0
lhumerus 11.2415 -11.1475 76.3861
lradius 114.513 -0 0
lwrist -14.4737 0 0
lhand -41.5414 29.0749 -0.0350105
lfingers 7.12502 -0 0
lthumb -14.4565 58.7495 0.0187394
rclavicle -2.16427e-14 -8.39865e-15 0
rhumerus -41.6795 53.5103 -96.3426
rradius 111.903 -0 0
rwrist -72.1973 0 0
rhand -4.01424 -22.5353 0.0836422
rfingers 7.12502 -0 0
rthumb 21.7268 -51.1225 0.121113
2660
root -2.76376 15.2095 -28.3288 171.252 -59.2836 -177.097
lfemur -35.4621 29.5011 -0.915719
ltibia 47.7396 -0 0
lfoot 19.9159 10.9586 0.389406
ltoes 7.8247 -0 0
rfemur -29.8955 -19.507 19.0375
rtibia 69.3229 -0 0
rfoot -25.9819 -11.1109 0.0394935
rtoes -7.63785 0 0
lowerback 15.946 5.29072 2.46931
upperback -0.924661 7.55255 0.765832
thorax -9.60233 3.49168 -2.32227
lowerneck -2.90842 10.8562 2.9602
upperneck 7.6105 14.3352 -0.0586441
head 2.9359 7.19183 0.00445362
lclavicle -2.16427e-14 -8.39865e-15 0
lhumerus 9.82519 -9.73917 76.7311
lradius 114.008 -0 0
lwrist -15.6865 0 0
lhand -41.6567 28.6979 -0.0471807
lfingers 7.12502 -0 0
lthumb -14.5676 58.3456 0.000463901
rclavicle -2.16427e-14 -8.39865e-15 0
rhumerus -42.3559 54.2311 -97.0035
rradius 112.706 -0 0
rwrist -74.5372 0 0
rhand -3.43612 -22.4636 0.0670446
rfingers 7.12502 -0 0
rthumb 22.2837 -51.0154 0.0990772
